# xmcd
#
# Track frame offsets:
#	150
#	7310
#	18440
#	29007
#	40782
#	49839
#	60199
#	71429
#	81536
#	92476
#	101731
#	111251
#	120426
#	133381
#	144704
#	154556
#	171496
#	184295
#	197576
#	208755
#
# Disc length: 2936 seconds
#
# Revision: 0
# Processed by: cddbd v1.5.1PL0 Copyright (c) Steve Scherf et al.
# Submitted via: dBpowerAMP V4.0
#
DISCID=240b7614
DTITLE=Conway Twitty - Only Make Believe (MCPS)
DYEAR=2003
DGENRE=Country
TTITLE0=Treat Me Mean Treat Me Cruel
TTITLE1=Have I Been Away Too Long
TTITLE2=It's Only Make Believe
TTITLE3=Sitting In A Dim Cafe
TTITLE4=The Road That I Walk
TTITLE5=Let Me Be The Judge
TTITLE6=Angels Wing
TTITLE7=Where I Stand
TTITLE8=Big Town
TTITLE9=Don't Go Too Far
TTITLE10=Ever Since You Walked Away
TTITLE11=Wonder If You Told Her About Me
TTITLE12=Reputation
TTITLE13=Broken Heart
TTITLE14=Riskin One
TTITLE15=Don't Cry Joni
TTITLE16=I May Never Get To Heaven
TTITLE17=Slow Hand
TTITLE18=Hello Darlin'
TTITLE19=You Made Me What I Am Today
EXTD=
EXTT0=
EXTT1=
EXTT2=
EXTT3=
EXTT4=
EXTT5=
EXTT6=
EXTT7=
EXTT8=
EXTT9=
EXTT10=
EXTT11=
EXTT12=
EXTT13=
EXTT14=
EXTT15=
EXTT16=
EXTT17=
EXTT18=
EXTT19=
PLAYORDER=
